<svg width="30" height="30" viewBox="0 0 30 30" fill="none" xmlns="http://www.w3.org/2000/svg">
<path fill-rule="evenodd" clip-rule="evenodd" d="M15 3.75C12.0163 3.75 9.15483 4.93526 7.04505 7.04505C4.93526 9.15483 3.75 12.0163 3.75 15C3.75 17.9837 4.93526 20.8452 7.04505 22.955C9.15483 25.0647 12.0163 26.25 15 26.25H20.625C22.3725 26.25 23.2463 26.25 23.935 25.965C24.3901 25.7765 24.8036 25.5003 25.152 25.152C25.5003 24.8036 25.7765 24.3901 25.965 23.935C26.25 23.2463 26.25 22.3725 26.25 20.625V15C26.25 12.0163 25.0647 9.15483 22.955 7.04505C20.8452 4.93526 17.9837 3.75 15 3.75Z" fill="#43C7FF"/>
<path d="M11.25 13.75H18.75M15 18.75H18.75" stroke="#001437" stroke-width="1.3" stroke-linecap="round" stroke-linejoin="round"/>
</svg>
