<svg width="30" height="30" viewBox="0 0 30 30" fill="none" xmlns="http://www.w3.org/2000/svg">
<circle cx="15.0003" cy="14.9993" r="12.2727" fill="#43C7FF"/>
<path d="M18.125 16.8758C18.123 17.5382 17.859 18.1729 17.3906 18.6414C16.9222 19.1098 16.2874 19.3738 15.625 19.3758V20.6383C15.625 20.804 15.5592 20.963 15.4419 21.0802C15.3247 21.1974 15.1658 21.2633 15 21.2633C14.8342 21.2633 14.6753 21.1974 14.5581 21.0802C14.4408 20.963 14.375 20.804 14.375 20.6383V19.3758H12.8125C12.6467 19.3758 12.4878 19.3099 12.3706 19.1927C12.2533 19.0755 12.1875 18.9165 12.1875 18.7508C12.1875 18.585 12.2533 18.426 12.3706 18.3088C12.4878 18.1916 12.6467 18.1258 12.8125 18.1258H15.625C15.9565 18.1258 16.2745 17.9941 16.5089 17.7597C16.7433 17.5252 16.875 17.2073 16.875 16.8758C16.875 16.5443 16.7433 16.2263 16.5089 15.9919C16.2745 15.7575 15.9565 15.6258 15.625 15.6258H14.375C13.712 15.6258 13.0761 15.3624 12.6072 14.8935C12.1384 14.4247 11.875 13.7888 11.875 13.1258C11.875 12.4627 12.1384 11.8269 12.6072 11.358C13.0761 10.8892 13.712 10.6258 14.375 10.6258V9.36328C14.375 9.19752 14.4408 9.03855 14.5581 8.92134C14.6753 8.80413 14.8342 8.73828 15 8.73828C15.1658 8.73828 15.3247 8.80413 15.4419 8.92134C15.5592 9.03855 15.625 9.19752 15.625 9.36328V10.6258H17.1875C17.3533 10.6258 17.5122 10.6916 17.6294 10.8088C17.7467 10.926 17.8125 11.085 17.8125 11.2508C17.8125 11.4165 17.7467 11.5755 17.6294 11.6927C17.5122 11.8099 17.3533 11.8758 17.1875 11.8758H14.375C14.0435 11.8758 13.7255 12.0075 13.4911 12.2419C13.2567 12.4763 13.125 12.7943 13.125 13.1258C13.125 13.4573 13.2567 13.7752 13.4911 14.0097C13.7255 14.2441 14.0435 14.3758 14.375 14.3758H15.625C16.2874 14.3778 16.9222 14.6418 17.3906 15.1102C17.859 15.5786 18.123 16.2133 18.125 16.8758Z" fill="#001437"/>
</svg>
