<svg width="30" height="30" viewBox="0 0 30 30" fill="none" xmlns="http://www.w3.org/2000/svg">
<path d="M16.509 3.74715C16.0811 3.40388 15.549 3.2168 15.0004 3.2168C14.4519 3.2168 13.9197 3.40388 13.4918 3.74715L5.18828 10.4082C4.90672 10.6341 4.67948 10.9203 4.52334 11.2458C4.3672 11.5712 4.28613 11.9276 4.28613 12.2886V24.3743C4.28613 25.0137 4.54012 25.6268 4.99221 26.0789C5.44431 26.531 6.05749 26.785 6.69685 26.785H9.37542C10.0148 26.785 10.628 26.531 11.0801 26.0789C11.5321 25.6268 11.7861 25.0137 11.7861 24.3743V18.4814C11.7861 17.7422 12.3861 17.1421 13.1254 17.1421H16.8754C17.6147 17.1421 18.2147 17.7422 18.2147 18.4814V24.3743C18.2147 25.0137 18.4687 25.6268 18.9208 26.0789C19.3729 26.531 19.9861 26.785 20.6254 26.785H23.304C23.9433 26.785 24.5565 26.531 25.0086 26.0789C25.4607 25.6268 25.7147 25.0137 25.7147 24.3743V12.2886C25.7147 11.9276 25.6336 11.5712 25.4775 11.2458C25.3214 10.9203 25.0941 10.6341 24.8126 10.4082L16.509 3.74715Z" fill="#43C7FF"/>
</svg>
