<svg width="30" height="30" viewBox="0 0 30 30" fill="none" xmlns="http://www.w3.org/2000/svg">
<path d="M15 3C13.4087 3 11.8826 3.63214 10.7574 4.75736C9.63214 5.88258 9 7.4087 9 9C9 10.5913 9.63214 12.1174 10.7574 13.2426C11.8826 14.3679 13.4087 15 15 15C16.5913 15 18.1174 14.3679 19.2426 13.2426C20.3679 12.1174 21 10.5913 21 9C21 7.4087 20.3679 5.88258 19.2426 4.75736C18.1174 3.63214 16.5913 3 15 3ZM7.5135 16.5C7.1184 16.4982 6.72684 16.5745 6.3613 16.7245C5.99577 16.8744 5.66345 17.0951 5.38345 17.3739C5.10344 17.6526 4.88125 17.984 4.72965 18.3488C4.57804 18.7137 4.5 19.1049 4.5 19.5C4.5 22.0365 5.7495 23.949 7.7025 25.1955C9.6255 26.421 12.2175 27 15 27C17.7825 27 20.3745 26.421 22.2975 25.1955C24.2505 23.9505 25.5 22.035 25.5 19.5C25.5 18.7044 25.1839 17.9413 24.6213 17.3787C24.0587 16.8161 23.2956 16.5 22.5 16.5H7.5135Z" fill="#43C7FF"/>
</svg>
