<svg width="30" height="30" viewBox="0 0 30 30" fill="none" xmlns="http://www.w3.org/2000/svg">
<mask id="path-1-inside-1_1666_4011" fill="white">
<path d="M22 4C23.1046 4 24 4.89543 24 6V19H18.9961C17.8917 19.0002 17 19.8926 17 20.9971V26H8C6.89543 26 6 25.1046 6 24V6C6 4.89543 6.89543 4 8 4H22Z"/>
</mask>
<path d="M24 6H25.3V6H24ZM24 19V20.3H25.3V19H24ZM18.9961 19V17.7H18.9958L18.9961 19ZM17 26V27.3H18.3V26H17ZM6 24H4.7V24H6ZM8 4V2.7V4ZM22 4V5.3C22.3866 5.3 22.7 5.6134 22.7 6H24H25.3C25.3 4.17746 23.8225 2.7 22 2.7V4ZM24 6H22.7V19H24H25.3V6H24ZM24 19V17.7H18.9961V19V20.3H24V19ZM18.9961 19L18.9958 17.7C17.1731 17.7003 15.7 19.1752 15.7 20.9971H17H18.3C18.3 20.61 18.6103 20.3001 18.9963 20.3L18.9961 19ZM17 20.9971H15.7V26H17H18.3V20.9971H17ZM17 26V24.7H8V26V27.3H17V26ZM8 26V24.7C7.6134 24.7 7.3 24.3866 7.3 24H6H4.7C4.7 25.8225 6.17746 27.3 8 27.3V26ZM6 24H7.3V6H6H4.7V24H6ZM6 6H7.3C7.3 5.6134 7.6134 5.3 8 5.3V4V2.7C6.17746 2.7 4.7 4.17746 4.7 6H6ZM8 4V5.3H22V4V2.7H8V4Z" fill="#BCC1C3" mask="url(#path-1-inside-1_1666_4011)"/>
<path d="M19 9H11M19 13H11M15 17H11" stroke="#BCC1C3" stroke-width="1.3" stroke-linecap="round" stroke-linejoin="round"/>
<path d="M24 19L17 26H16V21C16 19.3431 17.3431 18 19 18H24V19ZM19 19.2998C18.0611 19.2998 17.2998 20.0611 17.2998 21V23.8623L21.8623 19.2998H19Z" fill="#BCC1C3"/>
</svg>
