<svg width="30" height="30" viewBox="0 0 30 30" fill="none" xmlns="http://www.w3.org/2000/svg">
<path d="M24 21H19.9789C19.4266 21 19.0002 21.4459 19.0002 21.9982V26L24 21Z" fill="#43C7FF"/>
<path d="M22 4C23.1046 4 24 4.89543 24 6V20H19.9961C18.8917 20.0002 18 20.8926 18 21.9971V26H8C6.89543 26 6 25.1046 6 24V6C6 4.89543 6.89543 4 8 4H22ZM11 16.5C10.7239 16.5 10.5 16.7239 10.5 17C10.5 17.2761 10.7239 17.5 11 17.5H15C15.2761 17.5 15.5 17.2761 15.5 17C15.5 16.7239 15.2761 16.5 15 16.5H11ZM11 12.5C10.7239 12.5 10.5 12.7239 10.5 13C10.5 13.2761 10.7239 13.5 11 13.5H19C19.2761 13.5 19.5 13.2761 19.5 13C19.5 12.7239 19.2761 12.5 19 12.5H11ZM11 8.5C10.7239 8.5 10.5 8.72386 10.5 9C10.5 9.27614 10.7239 9.5 11 9.5H19C19.2761 9.5 19.5 9.27614 19.5 9C19.5 8.72386 19.2761 8.5 19 8.5H11Z" fill="#43C7FF"/>
</svg>
